{"title":"Bobs.Burger.S05E04.EDTV.x264-db666","uid":11554078,"size":133302515,"categoryP":"video","categoryS":"tv_shows","magnet":"?xt=urn:btih:991d9055b7d87ac3aba2f5daf2b5716dead83cc3&amp;dn=Bobs.Burger.S05E04.EDTV.x264-db666&amp;tr=udp%3A%2F%2Ftracker.openbittorrent.com%3A80&amp;tr=udp%3A%2F%2Fopen.demonii.com%3A1337&amp;tr=udp%3A%2F%2Ftracker.coppersurfer.tk%3A6969&amp;tr=udp%3A%2F%2Fexodus.desync.com%3A6969","seeders":2,"leechers":0,"uploader":"danyboy666","files":3,"time":1416801178,"description":"*******************************************************************************\n                      Bobs.Burger.S05E04.EDTV.x264-db666\n*******************************************************************************\n\n-------------------------------------------------------------------------------\n                              General Information\n-------------------------------------------------------------------------------\n\nType.................: Video\nVideo Format.........: H.264\nResolution...........: 720 x 480\nSource...............: ClearQam\n\n-------------------------------------------------------------------------------\n                               Post Information\n-------------------------------------------------------------------------------\n\nTVDB ou iMDB.........: http://thetvdb.com/?id=194031&amp;tab=series\n\n-------------------------------------------------------------------------------\n                                 Synopsys\n-------------------------------------------------------------------------------\nGeneral\nUnique ID                                : 67765491589531152296808346107696585654 (0x32FB28B09BE96C7110505B17C2731BB6)\nComplete name                            : bobs.burger.s05e04-db666.mkv\nFormat                                   : Matroska\nFormat version                           : Version 2\nFile size                                : 127 MiB\nDuration                                 : 21mn 13s\nOverall bit rate                         : 837 Kbps\nWriting application                      : HandBrake 0.10.0 2014112200\nWriting library                          : Lavf55.12.0\n\nVideo\nID                                       : 1\nFormat                                   : AVC\nFormat/Info                              : Advanced Video Codec\nFormat profile                           : &lt;a class=&quot;__cf_email__&quot; href=&quot;/cdn-cgi/l/email-protection&quot; data-cfemail=&quot;753d1c121d3539475b47&quot;&gt;[email&amp;#160;protected]&lt;/a&gt;&lt;script cf-hash='f9e31' type=&quot;text/javascript&quot;&gt;\n/* &lt;![CDATA[ */!function(){try{var t=&quot;currentScript&quot;in document?document.currentScript:function(){for(var t=document.getElementsByTagName(&quot;script&quot;),e=t.length;e--;)if(t[e].getAttribute(&quot;cf-hash&quot;))return t[e]}();if(t&amp;&amp;t.previousSibling){var e,r,n,i,c=t.previousSibling,a=c.getAttribute(&quot;data-cfemail&quot;);if(a){for(e=&quot;&quot;,r=parseInt(a.substr(0,2),16),n=2;a.length-n;n+=2)i=parseInt(a.substr(n,2),16)^r,e+=String.fromCharCode(i);e=document.createTextNode(e),c.parentNode.replaceChild(e,c)}}}catch(u){}}();/* ]]&gt; */&lt;/script&gt;\nFormat settings, CABAC                   : Yes\nFormat settings, ReFrames                : 6 frames\nCodec ID                                 : V_MPEG4/ISO/AVC\nDuration                                 : 21mn 13s\nBit rate                                 : 629 Kbps\nWidth                                    : 720 pixels\nHeight                                   : 480 pixels\nDisplay aspect ratio                     : 3:2\nFrame rate mode                          : Constant\nFrame rate                               : 29.970 fps\nStandard                                 : NTSC\nColor space                              : YUV\nChroma subsampling                       : 4:2:0\nBit depth                                : 8 bits\nScan type                                : Progressive\nBits/(Pixel*Frame)                       : 0.061\nStream size                              : 95.4 MiB (75%)\nWriting library                          : x264 core 142 r2479 dd79a61\nEncoding settings                        : cabac=1 / ref=6 / deblock=1:1:1 / analyse=0x3:0x113 / me=hex / subme=7 / psy=1 / psy_rd=0.40:0.00 / mixed_ref=1 / me_range=16 / chroma_me=1 / trellis=1 / 8x8dct=1 / cqm=0 / deadzone=21,11 / fast_pskip=1 / chroma_qp_offset=-2 / threads=9 / lookahead_threads=1 / sliced_threads=0 / nr=0 / decimate=1 / interlaced=0 / bluray_compat=0 / constrained_intra=0 / bframes=5 / b_pyramid=2 / b_adapt=1 / b_bias=0 / direct=1 / weightb=1 / open_gop=0 / weightp=2 / keyint=300 / keyint_min=30 / scenecut=40 / intra_refresh=0 / rc_lookahead=40 / rc=crf / mbtree=1 / crf=20.0 / qcomp=0.60 / qpmin=0 / qpmax=69 / qpstep=4 / vbv_maxrate=5000 / vbv_bufsize=5000 / crf_max=0.0 / nal_hrd=none / filler=0 / ip_ratio=1.40 / aq=1:0.60\nDefault                                  : Yes\nForced                                   : No\nColor primaries                          : BT.601 NTSC\nTransfer characteristics                 : BT.709\nMatrix coefficients                      : BT.601\nColor range                              : Limited\n\nAudio\nID                                       : 2\nFormat                                   : AC-3\nFormat/Info                              : Audio Coding 3\nMode extension                           : CM (complete main)\nFormat settings, Endianness              : Big\nCodec ID                                 : A_AC3\nDuration                                 : 21mn 13s\nBit rate mode                            : Constant\nBit rate                                 : 192 Kbps\nChannel(s)                               : 2 channels\nChannel positions                        : Front: L R\nSampling rate                            : 48.0 KHz\nBit depth                                : 16 bits\nCompression mode                         : Lossy\nDelay relative to video                  : 26ms\nStream size                              : 29.2 MiB (23%)\nTitle                                    : English\nDefault                                  : Yes\nForced                                   : No","torrent":{"xt":"urn:btih:991d9055b7d87ac3aba2f5daf2b5716dead83cc3","amp;dn":"Bobs.Burger.S05E04.EDTV.x264-db666","amp;tr":["udp%3A%2F%2Ftracker.openbittorrent.com%3A80","udp%3A%2F%2Fopen.demonii.com%3A1337","udp%3A%2F%2Ftracker.coppersurfer.tk%3A6969","udp%3A%2F%2Fexodus.desync.com%3A6969"],"infoHash":"991d9055b7d87ac3aba2f5daf2b5716dead83cc3","infoHashBuffer":{"type":"Buffer","data":[153,29,144,85,183,216,122,195,171,162,245,218,242,181,113,109,234,216,60,195]},"announce":[],"urlList":[]}}